<?xml version="1.0" encoding="UTF-8"?>
<svg xmlns="http://www.w3.org/2000/svg" xmlns:xlink="http://www.w3.org/1999/xlink" width="14px" height="14px" viewBox="0 0 14 14" version="1.1">
<g id="surface1">
<path style=" stroke:none;fill-rule:nonzero;fill: #526278;fill-opacity:1;" d="M 5.953125 1.828125 L 6.648438 1.222656 C 6.941406 0.964844 7.414062 0.964844 7.707031 1.222656 L 13.78125 6.535156 C 14.074219 6.792969 14.074219 7.207031 13.78125 7.460938 L 7.707031 12.777344 C 7.414062 13.035156 6.9375 13.035156 6.648438 12.777344 L 5.953125 12.171875 C 5.65625 11.910156 5.664062 11.488281 5.964844 11.234375 L 9.730469 8.09375 L 0.75 8.09375 C 0.335938 8.09375 0 7.800781 0 7.4375 L 0 6.5625 C 0 6.199219 0.335938 5.90625 0.75 5.90625 L 9.730469 5.90625 L 5.964844 2.765625 C 5.660156 2.511719 5.652344 2.089844 5.953125 1.828125 Z M 5.953125 1.828125 "/>
</g>
</svg>
